<svg xmlns="http://www.w3.org/2000/svg" width="34" height="34" viewBox="0 0 34 34">
  <g fill="none" fill-rule="evenodd">
    <path fill="#F08300" d="M0 12.9634L0 14.1894C0 14.4024.174 14.5764.387 14.5764L2.613 14.5764C2.826 14.5764 3 14.4024 3 14.1894L3 12.9634C3 12.7504 2.826 12.5764 2.613 12.5764L.387 12.5764C.174 12.5764 0 12.7504 0 12.9634M1.2143 18.8859L1.8273 19.9469C1.9333 20.1319 2.1713 20.1959 2.3563 20.0889L4.2833 18.9759C4.4683 18.8689 4.5323 18.6319 4.4253 18.4469L3.8123 17.3859C3.7053 17.2009 3.4683 17.1369 3.2833 17.2439L1.3563 18.3569C1.1713 18.4639 1.1073 18.7009 1.2143 18.8859M18.0905 3.9097L17.0295 3.2967C16.8445 3.1907 16.6065 3.2537 16.5005 3.4387L15.3875 5.3657C15.2805 5.5507 15.3445 5.7887 15.5295 5.8947L16.5905 6.5077C16.7755 6.6147 17.0125 6.5507 17.1195 6.3657L18.2325 4.4387C18.3385 4.2537 18.2755 4.0167 18.0905 3.9097M12.3542 2L11.1282 2C10.9152 2 10.7412 2.174 10.7412 2.387L10.7412 4.613C10.7412 4.826 10.9152 5 11.1282 5L12.3542 5C12.5672 5 12.7412 4.826 12.7412 4.613L12.7412 2.387C12.7412 2.174 12.5672 2 12.3542 2M6.4317 3.2143L5.3707 3.8273C5.1857 3.9333 5.1217 4.1713 5.2287 4.3563L6.3417 6.2833C6.4487 6.4683 6.6857 6.5323 6.8707 6.4253L7.9317 5.8123C8.1167 5.7053 8.1807 5.4683 8.0737 5.2833L6.9607 3.3563C6.8537 3.1713 6.6167 3.1073 6.4317 3.2143M1.9097 7.2271L1.2967 8.2881C1.1907 8.4731 1.2537 8.7111 1.4387 8.8171L3.3657 9.9301C3.5507 10.0371 3.7887 9.9731 3.8947 9.7881L4.5077 8.7271C4.6147 8.5421 4.5507 8.3051 4.3657 8.1981L2.4387 7.0851C2.2537 6.9791 2.0167 7.0421 1.9097 7.2271M11.6623 6.9739C7.9723 6.9739 4.9823 9.9739 4.9823 13.6539 4.9823 15.9739 6.1723 18.0239 7.9723 19.2239 7.9323 18.9539 7.9123 18.6839 7.9123 18.4139 7.9123 17.8739 7.9823 17.3639 8.1223 16.8739 7.3523 16.0239 6.8823 14.8939 6.8823 13.6539 6.8823 11.0239 9.0223 8.8739 11.6623 8.8739 12.5023 8.8739 13.2923 9.0939 13.9723 9.4839 14.3923 8.9739 14.8523 8.5039 15.3723 8.1039 14.3123 7.3939 13.0423 6.9739 11.6623 6.9739"/>
    <path fill="#4A4A4A" d="M27.1508,22.6503 C26.9158,22.6503 26.7028,22.5703 26.5358,22.4203 C26.3548,22.2563 26.2668,22.0163 26.2668,21.6863 C26.2668,21.5723 26.2718,21.4593 26.2838,21.3423 C26.2958,21.2203 26.3118,21.1233 26.3298,21.0553 L26.3718,20.8883 L26.5638,20.7423 L27.4788,20.7523 C27.7928,20.7523 30.5638,20.6493 30.5638,17.0733 C30.5638,14.0653 27.3828,13.6413 27.0198,13.6033 L26.5378,13.5523 L26.3758,13.4293 L26.2038,12.9893 C26.1568,12.8683 25.0168,10.0433 21.1498,10.0433 C16.5268,10.0433 15.7038,14.7243 15.6708,14.9233 L15.5758,15.5153 L15.3978,15.6783 L14.7788,15.7233 C13.6618,15.8043 11.7718,16.4323 11.7718,18.2643 C11.7718,20.5653 13.7488,20.7413 14.1448,20.7533 C14.1698,20.7553 14.3428,20.7773 14.5748,20.7773 C14.7138,20.7773 14.8738,20.7693 15.0328,20.7443 L15.2528,20.8883 L15.2958,21.0553 C15.3138,21.1233 15.3288,21.2203 15.3418,21.3413 C15.3528,21.4603 15.3588,21.5723 15.3588,21.6863 C15.3588,22.0153 15.2708,22.2553 15.0898,22.4193 C14.9228,22.5703 14.7098,22.6503 14.4728,22.6503 L14.1148,22.6503 C12.6248,22.6053 9.8178,21.6323 9.8178,18.2643 C9.8178,15.0073 12.9338,14.1263 13.8948,13.9323 C14.1568,12.9563 15.7298,8.1463 21.1498,8.1463 C25.3148,8.1463 27.1758,10.7023 27.7828,11.8013 C28.5698,11.9533 32.5168,12.9333 32.5168,17.0733 C32.5168,21.4843 29.2198,22.6503 27.4768,22.6503 L27.3568,22.6503 L27.1508,22.6503 Z"/>
    <path fill="#0072C9" d="M17.2882 28.9236C17.0382 28.9236 16.8332 28.7226 16.8332 28.4766L16.8332 21.3296C16.8332 21.0826 17.0382 20.8816 17.2882 20.8816L18.2522 20.8816C18.5032 20.8816 18.7072 21.0826 18.7072 21.3296L18.7072 28.4766C18.7072 28.7226 18.5032 28.9236 18.2522 28.9236L17.2882 28.9236zM23.5826 28.9236C23.3326 28.9236 23.1276 28.7226 23.1276 28.4766L23.1276 21.3296C23.1276 21.0826 23.3326 20.8816 23.5826 20.8816L24.5466 20.8816C24.7976 20.8816 25.0016 21.0826 25.0016 21.3296L25.0016 28.4766C25.0016 28.7226 24.7976 28.9236 24.5466 28.9236L23.5826 28.9236zM20.4357 30.7247C20.1857 30.7247 19.9807 30.5237 19.9807 30.2767L19.9807 23.0787C19.9807 22.8317 20.1857 22.6307 20.4357 22.6307L21.3997 22.6307C21.6497 22.6307 21.8537 22.8317 21.8537 23.0787L21.8537 30.2767C21.8537 30.5237 21.6497 30.7247 21.3997 30.7247L20.4357 30.7247z"/>
  </g>
</svg>
